<svg width="398" height="315" viewBox="0 0 398 315" fill="none" xmlns="http://www.w3.org/2000/svg">
<g clip-path="url(#clip0)">
<path d="M56.0901 259.788H52.9083C52.0447 259.788 51.3174 259.062 51.3174 258.201C51.3174 257.34 52.0447 256.615 52.9083 256.615H56.0901C56.9537 256.615 57.681 257.34 57.681 258.201C57.681 259.062 56.9537 259.788 56.0901 259.788Z" fill="#D1CCE6"/>
<path d="M82.5452 259.788H77.0906C76.227 259.788 75.4997 259.062 75.4997 258.201C75.4997 257.34 76.227 256.615 77.0906 256.615H82.5452C83.4088 256.615 84.1361 257.34 84.1361 258.201C84.1361 259.062 83.4088 259.788 82.5452 259.788ZM69.3179 259.788H63.8634C62.9997 259.788 62.2725 259.062 62.2725 258.201C62.2725 257.34 62.9997 256.615 63.8634 256.615H69.3179C70.1816 256.615 70.9088 257.34 70.9088 258.201C70.9088 259.062 70.1816 259.788 69.3179 259.788Z" fill="#D1CCE6"/>
<path d="M95.0902 259.788H90.3175C89.4538 259.788 88.7266 259.063 88.7266 258.201C88.7266 257.34 89.4538 256.615 90.3175 256.615H91.9084V255.028C91.9084 254.167 92.6357 253.442 93.4993 253.442C94.3629 253.442 95.0902 254.167 95.0902 255.028V259.788Z" fill="#D1CCE6"/>
<path d="M93.4991 247.095C92.6355 247.095 91.9082 246.37 91.9082 245.509V238.845C91.9082 237.984 92.6355 237.259 93.4991 237.259C94.3628 237.259 95.09 237.984 95.09 238.845V245.509C95.09 246.37 94.4082 247.095 93.4991 247.095ZM93.4991 230.867C92.6355 230.867 91.9082 230.142 91.9082 229.28V222.617C91.9082 221.756 92.6355 221.03 93.4991 221.03C94.3628 221.03 95.09 221.756 95.09 222.617V229.28C95.09 230.142 94.4082 230.867 93.4991 230.867ZM93.4991 214.639C92.6355 214.639 91.9082 213.914 91.9082 213.052V206.389C91.9082 205.527 92.6355 204.802 93.4991 204.802C94.3628 204.802 95.09 205.527 95.09 206.389V213.052C95.09 213.914 94.4082 214.639 93.4991 214.639Z" fill="#D1CCE6"/>
<path d="M93.4991 198.411C92.6355 198.411 91.9082 197.685 91.9082 196.824V193.651C91.9082 192.79 92.6355 192.064 93.4991 192.064C94.3628 192.064 95.09 192.79 95.09 193.651V196.824C95.09 197.731 94.4082 198.411 93.4991 198.411Z" fill="#D1CCE6"/>
<path d="M44.9996 238.755C42.8178 236.624 40.2723 234.901 37.5451 233.632C37.4996 233.587 37.4541 233.587 37.4087 233.542C33.5451 231.819 29.2723 230.958 24.9996 231.23C22.045 231.366 19.0905 232.046 16.2269 233.224C16.045 233.315 15.8632 233.36 15.6814 233.451C10.545 235.717 6.49959 239.434 3.81778 243.922C-0.500406 251.084 -1.36404 260.15 2.27232 268.31C8.22687 281.592 23.8632 287.575 37.1814 281.637C49.4087 276.197 55.4541 262.644 51.8178 250.178C51.4996 249.044 51.0905 247.911 50.5905 246.823C49.2269 243.696 47.2723 241.021 44.9996 238.755ZM33.9087 274.293C24.6814 278.419 13.8178 274.248 9.68141 265.046C7.22687 259.561 7.72687 253.532 10.4541 248.637C10.4541 248.591 10.4996 248.546 10.4996 248.546C12.3632 245.282 15.2723 242.562 18.9541 240.885C19.636 240.568 20.3632 240.296 21.045 240.114C21.136 240.069 21.1814 240.069 21.2723 240.024C24.9541 238.936 28.7269 239.072 32.2269 240.25H32.2723C35.2269 241.248 37.9541 242.97 40.0905 245.373C41.3178 246.733 42.4087 248.365 43.1814 250.132C43.6814 251.266 44.0451 252.399 44.3178 253.532C46.2269 261.828 42.0451 270.667 33.9087 274.293Z" fill="#5C65A4"/>
<path d="M37.5447 233.632C40.272 234.901 42.8175 236.624 44.9993 238.754C47.3175 241.021 49.2266 243.695 50.5902 246.823C51.0902 247.911 51.4993 249.044 51.8175 250.178L44.3175 253.487C44.0447 252.354 43.6811 251.22 43.1811 250.087C42.3629 248.319 41.3175 246.687 40.0902 245.327C37.9538 242.97 35.272 241.248 32.272 240.25H32.2266L37.3629 233.587" fill="#EA8461"/>
<path d="M32.2726 240.25C28.7726 239.072 24.9544 238.936 21.2726 240.024C21.1816 240.024 21.1362 240.069 21.0453 240.114L16.1816 233.315C19.0453 232.136 21.9998 231.456 24.9544 231.32C29.2726 231.094 33.4998 231.91 37.3635 233.632" fill="#BA5A8D"/>
<path d="M130.636 214.684H26.9539C24.2721 214.684 22.1357 212.508 22.1357 209.879V92.5644C22.1357 89.8899 24.3176 87.7594 26.9539 87.7594H130.636C133.318 87.7594 135.454 89.9352 135.454 92.5644V209.834C135.499 212.508 133.318 214.684 130.636 214.684Z" fill="white"/>
<path d="M127.045 204.757V205.119C127.045 205.301 126.955 205.437 126.773 205.527L124.091 206.57C123.818 206.661 123.5 206.479 123.5 206.162C123.5 205.981 123.591 205.799 123.773 205.754L124.864 205.346C125.227 205.21 125.227 204.666 124.864 204.53L123.773 204.122C123.591 204.077 123.5 203.896 123.5 203.714C123.5 203.397 123.818 203.216 124.091 203.306L126.773 204.349C126.909 204.394 127.045 204.575 127.045 204.757Z" fill="#EA8461"/>
<path d="M116.909 203.714C116.909 203.896 116.818 204.077 116.636 204.122L115.545 204.53C115.181 204.666 115.181 205.21 115.545 205.346L116.636 205.754C116.818 205.799 116.909 205.981 116.909 206.162C116.909 206.479 116.591 206.661 116.318 206.57L113.636 205.527C113.454 205.482 113.363 205.301 113.363 205.119V204.757C113.363 204.575 113.454 204.439 113.636 204.349L116.318 203.306C116.636 203.216 116.909 203.397 116.909 203.714Z" fill="#EA8461"/>
<path d="M121.454 200.496H121.636C121.954 200.496 122.136 200.768 122.045 201.085L119.727 207.749C119.682 207.93 119.5 208.021 119.318 208.021H119.091C118.773 208.021 118.591 207.749 118.682 207.431L121 200.768C121.091 200.586 121.227 200.496 121.454 200.496Z" fill="#EA8461"/>
<path d="M41.9985 113.054V113.507C41.9985 113.734 41.8621 113.915 41.6349 114.006L38.2712 115.275C37.9076 115.411 37.5439 115.139 37.5439 114.776C37.5439 114.55 37.6803 114.368 37.9076 114.278L39.2712 113.779C39.7258 113.598 39.7258 112.963 39.2712 112.782L37.9076 112.283C37.6803 112.192 37.5439 112.011 37.5439 111.784C37.5439 111.422 37.9076 111.15 38.2712 111.286L41.6349 112.555C41.8621 112.6 41.9985 112.827 41.9985 113.054Z" fill="#EA8461"/>
<path d="M33.8628 111.784C33.8628 112.011 33.7264 112.192 33.4991 112.283L32.1355 112.782C31.6809 112.963 31.6809 113.598 32.1355 113.779L33.4991 114.278C33.7264 114.368 33.8628 114.55 33.8628 114.776C33.8628 115.139 33.4991 115.411 33.1355 115.275L29.7718 114.006C29.5446 113.915 29.4082 113.734 29.4082 113.507V113.054C29.4082 112.827 29.5446 112.646 29.7718 112.555L33.1355 111.286C33.4537 111.15 33.8628 111.376 33.8628 111.784Z" fill="#EA8461"/>
<path d="M79.0898 127.922H46.5898C46.3625 127.922 46.1807 127.741 46.1807 127.514V122.301C46.1807 122.074 46.3625 121.893 46.5898 121.893H79.0898C79.317 121.893 79.4988 122.074 79.4988 122.301V127.514C79.5443 127.741 79.3625 127.922 79.0898 127.922Z" fill="#5C65A4"/>
<path d="M100.5 127.922H84.6816C84.4543 127.922 84.2725 127.741 84.2725 127.514V122.301C84.2725 122.074 84.4543 121.893 84.6816 121.893H100.5C100.727 121.893 100.909 122.074 100.909 122.301V127.514C100.909 127.741 100.727 127.922 100.5 127.922Z" fill="#EA8461"/>
<path d="M127.272 127.922H105.182C104.954 127.922 104.772 127.741 104.772 127.514V122.301C104.772 122.074 104.954 121.893 105.182 121.893H127.272C127.5 121.893 127.682 122.074 127.682 122.301V127.514C127.727 127.741 127.545 127.922 127.272 127.922Z" fill="#D0CCE6"/>
<path d="M61.3175 145.374H46.6357C46.4084 145.374 46.2266 145.193 46.2266 144.966V139.753C46.2266 139.527 46.4084 139.345 46.6357 139.345H61.3175C61.5447 139.345 61.7266 139.527 61.7266 139.753V144.966C61.772 145.193 61.5447 145.374 61.3175 145.374Z" fill="#5C65A4"/>
<path d="M92.1354 145.374H66.4081C66.1808 145.374 65.999 145.193 65.999 144.966V139.753C65.999 139.527 66.1808 139.345 66.4081 139.345H92.1354C92.3627 139.345 92.5445 139.527 92.5445 139.753V144.966C92.5899 145.193 92.3627 145.374 92.1354 145.374Z" fill="#EA8461"/>
<path d="M127.272 145.374H97.3173C97.09 145.374 96.9082 145.193 96.9082 144.966V139.753C96.9082 139.527 97.09 139.345 97.3173 139.345H127.272C127.499 139.345 127.681 139.527 127.681 139.753V144.966C127.726 145.193 127.545 145.374 127.272 145.374Z" fill="#D0CCE6"/>
<path d="M66.272 162.872H46.6357C46.4084 162.872 46.2266 162.69 46.2266 162.464V157.251C46.2266 157.024 46.4084 156.843 46.6357 156.843H66.272C66.4993 156.843 66.6811 157.024 66.6811 157.251V162.464C66.6811 162.69 66.4993 162.872 66.272 162.872Z" fill="#5C65A4"/>
<path d="M108.136 162.872H70.454C70.2267 162.872 70.0449 162.69 70.0449 162.464V157.251C70.0449 157.024 70.2267 156.843 70.454 156.843H108.136C108.363 156.843 108.545 157.024 108.545 157.251V162.464C108.545 162.69 108.363 162.872 108.136 162.872Z" fill="#EA8461"/>
<path d="M127.272 162.872H113.09C112.862 162.872 112.681 162.69 112.681 162.464V157.251C112.681 157.024 112.862 156.843 113.09 156.843H127.272C127.499 156.843 127.681 157.024 127.681 157.251V162.464C127.726 162.69 127.544 162.872 127.272 162.872Z" fill="#D0CCE6"/>
<path d="M71.5902 180.324H46.6357C46.4084 180.324 46.2266 180.142 46.2266 179.916V174.703C46.2266 174.476 46.4084 174.295 46.6357 174.295H71.5902C71.8175 174.295 71.9993 174.476 71.9993 174.703V179.916C72.0447 180.142 71.8175 180.324 71.5902 180.324Z" fill="#5C65A4"/>
<path d="M100.5 180.324H76.2724C76.0451 180.324 75.8633 180.142 75.8633 179.916V174.703C75.8633 174.476 76.0451 174.295 76.2724 174.295H100.5C100.727 174.295 100.909 174.476 100.909 174.703V179.916C100.909 180.142 100.727 180.324 100.5 180.324Z" fill="#EA8461"/>
<path d="M127.272 180.324H105.182C104.954 180.324 104.772 180.142 104.772 179.916V174.703C104.772 174.476 104.954 174.295 105.182 174.295H127.272C127.5 174.295 127.682 174.476 127.682 174.703V179.916C127.727 180.142 127.545 180.324 127.272 180.324Z" fill="#D0CCE6"/>
<path d="M57.0902 197.821H46.6357C46.4084 197.821 46.2266 197.64 46.2266 197.413V192.2C46.2266 191.974 46.4084 191.792 46.6357 191.792H57.0902C57.3175 191.792 57.4993 191.974 57.4993 192.2V197.413C57.5447 197.64 57.3175 197.821 57.0902 197.821Z" fill="#5C65A4"/>
<path d="M83.3633 197.821H61.7724C61.5451 197.821 61.3633 197.64 61.3633 197.413V192.2C61.3633 191.974 61.5451 191.792 61.7724 191.792H83.3633C83.5905 191.792 83.7724 191.974 83.7724 192.2V197.413C83.7724 197.64 83.5905 197.821 83.3633 197.821Z" fill="#EA8461"/>
<path d="M127.272 197.821H87.7265C87.4992 197.821 87.3174 197.64 87.3174 197.413V192.2C87.3174 191.974 87.4992 191.792 87.7265 191.792H127.272C127.499 191.792 127.681 191.974 127.681 192.2V197.413C127.726 197.64 127.545 197.821 127.272 197.821Z" fill="#D0CCE6"/>
<path d="M35.7269 130.234C38.6892 130.234 41.0906 127.839 41.0906 124.885C41.0906 121.931 38.6892 119.536 35.7269 119.536C32.7647 119.536 30.3633 121.931 30.3633 124.885C30.3633 127.839 32.7647 130.234 35.7269 130.234Z" fill="#334FA2"/>
<path d="M35.7269 147.686C38.6892 147.686 41.0906 145.291 41.0906 142.337C41.0906 139.383 38.6892 136.988 35.7269 136.988C32.7647 136.988 30.3633 139.383 30.3633 142.337C30.3633 145.291 32.7647 147.686 35.7269 147.686Z" fill="#334FA2"/>
<path d="M35.7269 165.183C38.6892 165.183 41.0906 162.789 41.0906 159.835C41.0906 156.88 38.6892 154.486 35.7269 154.486C32.7647 154.486 30.3633 156.88 30.3633 159.835C30.3633 162.789 32.7647 165.183 35.7269 165.183Z" fill="#334FA2"/>
<path d="M35.7269 182.636C38.6892 182.636 41.0906 180.241 41.0906 177.287C41.0906 174.333 38.6892 171.938 35.7269 171.938C32.7647 171.938 30.3633 174.333 30.3633 177.287C30.3633 180.241 32.7647 182.636 35.7269 182.636Z" fill="#334FA2"/>
<path d="M35.7269 200.133C38.6892 200.133 41.0906 197.738 41.0906 194.784C41.0906 191.83 38.6892 189.435 35.7269 189.435C32.7647 189.435 30.3633 191.83 30.3633 194.784C30.3633 197.738 32.7647 200.133 35.7269 200.133Z" fill="#334FA2"/>
<path d="M135.499 101.993V92.5644C135.499 89.8899 133.318 87.7594 130.681 87.7594H26.9539C24.2721 87.7594 22.1357 89.9353 22.1357 92.5644V101.993H135.499Z" fill="#9EB6DF"/>
<path d="M129.363 94.8762C129.363 96.3721 128.135 97.596 126.635 97.596C125.135 97.596 123.908 96.3721 123.908 94.8762C123.908 93.3803 125.135 92.1564 126.635 92.1564C128.135 92.1564 129.363 93.3803 129.363 94.8762Z" fill="#BA5A8D"/>
<path d="M289.909 279.96C283.182 259.924 276.545 240.84 264.773 215.953C252.954 191.067 214.318 190.342 214.318 190.342C214.318 190.342 205.727 200.496 193.363 201.72C181 200.45 172.409 190.342 172.409 190.342C172.409 190.342 133.773 191.022 121.954 215.953C110.136 240.84 103.545 259.924 96.818 279.96C90.0907 299.996 94.9544 314.955 133.727 314.955C156.227 314.955 174.954 314.955 186.727 314.955C195.227 314.955 200.091 314.955 200.091 314.955C211.863 314.955 230.591 314.955 253.091 314.955C291.773 315 296.636 300.041 289.909 279.96Z" fill="#BA5A8D"/>
<path d="M257.091 315H129.545C126.545 315 124.091 312.552 124.091 309.56V219.806C124.091 216.815 126.545 214.367 129.545 214.367H257.091C260.091 214.367 262.545 216.815 262.545 219.806V309.56C262.545 312.552 260.091 315 257.091 315Z" fill="#9EB6DF"/>
<path d="M159.045 131.548C159.045 131.548 148.318 125.927 148.863 109.473C149.409 93.0177 149.409 93.0177 149.409 93.0177C149.409 93.0177 144.318 87.2608 147.545 80.4612C150.773 73.6617 154.818 81.2772 154.818 81.2772C154.818 81.2772 155.182 69.6726 163.818 66.5901C172.5 63.5077 168.682 76.9708 168.682 76.9708C168.682 76.9708 186.863 66.5902 209.136 74.0243C231.409 81.4585 240.091 105.937 236.773 119.491C233.454 133.09 227.5 134.948 227.5 134.948V123.026C227.5 123.026 215.318 119.944 205.636 111.512C195.954 103.081 183.773 99.9532 173.227 100.588C162.682 101.222 158.863 107.614 159.045 131.548Z" fill="#2A2769"/>
<path d="M325.727 34.9043C361.272 34.9043 340.454 34.9043 375.954 34.9043C388.636 34.9043 388.681 15.231 375.954 15.231C340.408 15.231 361.227 15.231 325.727 15.231C313.045 15.231 312.999 34.9043 325.727 34.9043Z" fill="#EA8461"/>
<path d="M185.045 27.3342C194.272 27.3342 203.5 27.3342 212.727 27.3342C215.636 27.3342 215.636 22.8011 212.727 22.8011C203.5 22.8011 194.272 22.8011 185.045 22.8011C182.136 22.8011 182.136 27.3342 185.045 27.3342Z" fill="#2A2769"/>
<path d="M230.591 27.3342C239.818 27.3342 249.046 27.3342 258.273 27.3342C261.182 27.3342 261.182 22.8011 258.273 22.8011C249.046 22.8011 239.818 22.8011 230.591 22.8011C227.682 22.8011 227.682 27.3342 230.591 27.3342Z" fill="#2A2769"/>
<path d="M276.136 27.3342C285.363 27.3342 294.59 27.3342 303.818 27.3342C306.727 27.3342 306.727 22.8011 303.818 22.8011C294.59 22.8011 285.363 22.8011 276.136 22.8011C273.181 22.8011 273.181 27.3342 276.136 27.3342Z" fill="#2A2769"/>
<path d="M360.091 129.463L369.454 114.368L364.818 111.512C363.454 110.651 362.727 109.155 362.863 107.523C362.954 106.662 362.954 105.755 362.954 104.849C362.909 103.262 363.772 101.766 365.182 101.041L370 98.4573L361.591 82.8184L356.772 85.4022C355.363 86.1728 353.682 86.0368 352.363 85.1302C351.636 84.6316 350.863 84.1783 350.091 83.725C348.682 82.9544 347.818 81.5038 347.863 79.9172L348.045 74.4776L330.272 73.9337L330.091 79.3733C330.045 80.9598 329.045 82.3651 327.591 83.045C327.182 83.2264 326.818 83.4077 326.409 83.6343C326 83.861 325.636 84.0423 325.272 84.2689C323.909 85.0849 322.227 85.1302 320.863 84.3143L316.182 81.4131L306.818 96.5081L311.454 99.3639C312.818 100.225 313.545 101.766 313.409 103.353C313.318 104.214 313.318 105.121 313.318 105.982C313.363 107.569 312.5 109.065 311.091 109.79L306.272 112.374L314.682 128.013L319.5 125.429C320.909 124.658 322.591 124.794 323.909 125.701C324.636 126.199 325.409 126.653 326.182 127.106C327.591 127.877 328.454 129.327 328.409 130.914L328.227 136.353L346 136.897L346.182 131.458C346.227 129.871 347.227 128.466 348.636 127.786C349.045 127.605 349.409 127.423 349.818 127.197C350.227 126.97 350.591 126.789 350.954 126.562C352.318 125.746 354.045 125.701 355.409 126.517L360.091 129.463ZM345 118.267C337.909 122.074 329.091 119.4 325.272 112.328C321.454 105.257 324.136 96.4174 331.227 92.655C338.318 88.8473 347.182 91.5218 351 98.5933C354.772 105.665 352.136 114.459 345 118.267Z" fill="#9EB6DF"/>
<path d="M193.318 172.346C182.454 172.21 173.954 170.079 173.954 170.079V174.431C173.954 174.431 181.818 180.958 192.727 180.958C192.909 180.958 193.136 180.958 193.318 180.958C193.5 180.958 193.681 180.958 193.909 180.958C204.818 180.958 212.681 174.431 212.681 174.431V170.079C212.681 170.079 204.181 172.21 193.318 172.346Z" fill="#2A2769"/>
<path d="M287.591 170.986H281.227C280.363 170.986 279.636 170.26 279.636 169.399C279.636 168.538 280.363 167.813 281.227 167.813H287.591C288.454 167.813 289.181 168.538 289.181 169.399C289.181 170.26 288.5 170.986 287.591 170.986ZM272.136 170.986H269.363V164.232C269.363 163.37 270.091 162.645 270.954 162.645C271.818 162.645 272.545 163.37 272.545 164.232V167.858C273.227 168.039 273.727 168.674 273.727 169.399C273.727 170.26 273.045 170.986 272.136 170.986ZM270.954 156.752C270.091 156.752 269.363 156.027 269.363 155.165V148.819C269.363 147.958 270.091 147.233 270.954 147.233C271.818 147.233 272.545 147.958 272.545 148.819V155.165C272.545 156.072 271.818 156.752 270.954 156.752ZM270.954 141.34C270.091 141.34 269.363 140.614 269.363 139.753V133.407C269.363 132.546 270.091 131.82 270.954 131.82C271.818 131.82 272.545 132.546 272.545 133.407V139.753C272.545 140.66 271.818 141.34 270.954 141.34ZM270.954 125.927C270.091 125.927 269.363 125.202 269.363 124.341V117.995C269.363 117.133 270.091 116.408 270.954 116.408C271.818 116.408 272.545 117.133 272.545 117.995V124.341C272.545 125.248 271.818 125.927 270.954 125.927ZM270.954 110.515C270.091 110.515 269.363 109.79 269.363 108.929V104.758H274.727C275.591 104.758 276.318 105.484 276.318 106.345C276.318 107.206 275.591 107.931 274.727 107.931H272.545V108.929C272.545 109.835 271.818 110.515 270.954 110.515ZM305.636 107.931H299.272C298.409 107.931 297.681 107.206 297.681 106.345C297.681 105.484 298.409 104.758 299.272 104.758H305.636C306.5 104.758 307.227 105.484 307.227 106.345C307.227 107.206 306.5 107.931 305.636 107.931ZM290.181 107.931H283.818C282.954 107.931 282.227 107.206 282.227 106.345C282.227 105.484 282.954 104.758 283.818 104.758H290.181C291.045 104.758 291.772 105.484 291.772 106.345C291.772 107.206 291.045 107.931 290.181 107.931Z" fill="#D1CCE6"/>
<path d="M320.5 203.805H308C306.227 203.805 304.772 202.354 304.772 200.586C304.772 198.819 306.227 197.368 308 197.368H320.5C322.272 197.368 323.727 198.819 323.727 200.586C323.773 202.354 322.318 203.805 320.5 203.805Z" fill="#D0CCE6"/>
<path d="M347.272 203.805H334.772C332.999 203.805 331.545 202.354 331.545 200.586C331.545 198.819 332.999 197.368 334.772 197.368H347.272C349.045 197.368 350.499 198.819 350.499 200.586C350.499 202.354 349.09 203.805 347.272 203.805Z" fill="#F9A152"/>
<path d="M381.363 203.805H360.545C358.772 203.805 357.317 202.354 357.317 200.586C357.317 198.819 358.772 197.368 360.545 197.368H381.363C383.136 197.368 384.59 198.819 384.59 200.586C384.59 202.354 383.181 203.805 381.363 203.805Z" fill="#F9A152"/>
<path d="M357.318 187.622H308C306.227 187.622 304.772 186.171 304.772 184.403C304.772 182.636 306.227 181.185 308 181.185H357.318C359.091 181.185 360.545 182.636 360.545 184.403C360.545 186.171 359.091 187.622 357.318 187.622Z" fill="#D0CCE6"/>
<path d="M381.363 187.622H371.272C369.499 187.622 368.045 186.171 368.045 184.403C368.045 182.636 369.499 181.185 371.272 181.185H381.363C383.136 181.185 384.59 182.636 384.59 184.403C384.59 186.171 383.181 187.622 381.363 187.622Z" fill="#F9A152"/>
<path d="M337.818 171.439H308C306.227 171.439 304.772 169.988 304.772 168.221C304.772 166.453 306.227 165.002 308 165.002H337.818C339.591 165.002 341.045 166.453 341.045 168.221C341.045 170.034 339.591 171.439 337.818 171.439Z" fill="#D0CCE6"/>
<path d="M381.363 171.439H351.545C349.772 171.439 348.317 169.988 348.317 168.221C348.317 166.453 349.772 165.002 351.545 165.002H381.363C383.136 165.002 384.59 166.453 384.59 168.221C384.59 170.034 383.181 171.439 381.363 171.439Z" fill="#F9A152"/>
<path d="M320.5 252.263H308C306.227 252.263 304.772 250.812 304.772 249.044C304.772 247.277 306.227 245.826 308 245.826H320.5C322.272 245.826 323.727 247.277 323.727 249.044C323.773 250.812 322.318 252.263 320.5 252.263Z" fill="#D0CCE6"/>
<path d="M347.272 252.263H334.772C332.999 252.263 331.545 250.812 331.545 249.044C331.545 247.277 332.999 245.826 334.772 245.826H347.272C349.045 245.826 350.499 247.277 350.499 249.044C350.499 250.812 349.09 252.263 347.272 252.263Z" fill="#F9A152"/>
<path d="M381.363 252.263H360.545C358.772 252.263 357.317 250.812 357.317 249.044C357.317 247.277 358.772 245.826 360.545 245.826H381.363C383.136 245.826 384.59 247.277 384.59 249.044C384.59 250.812 383.181 252.263 381.363 252.263Z" fill="#F9A152"/>
<path d="M357.318 236.125H308C306.227 236.125 304.772 234.675 304.772 232.907C304.772 231.139 306.227 229.688 308 229.688H357.318C359.091 229.688 360.545 231.139 360.545 232.907C360.545 234.675 359.091 236.125 357.318 236.125Z" fill="#D0CCE6"/>
<path d="M381.363 236.125H371.272C369.499 236.125 368.045 234.675 368.045 232.907C368.045 231.139 369.499 229.688 371.272 229.688H381.363C383.136 229.688 384.59 231.139 384.59 232.907C384.59 234.675 383.181 236.125 381.363 236.125Z" fill="#F9A152"/>
<path d="M337.818 219.942H308C306.227 219.942 304.772 218.492 304.772 216.724C304.772 214.956 306.227 213.506 308 213.506H337.818C339.591 213.506 341.045 214.956 341.045 216.724C341.045 218.492 339.591 219.942 337.818 219.942Z" fill="#D0CCE6"/>
<path d="M381.363 219.942H351.545C349.772 219.942 348.317 218.492 348.317 216.724C348.317 214.956 349.772 213.506 351.545 213.506H381.363C383.136 213.506 384.59 214.956 384.59 216.724C384.59 218.492 383.181 219.942 381.363 219.942Z" fill="#F9A152"/>
<path d="M193.318 283.178C202.782 283.178 210.454 275.527 210.454 266.089C210.454 256.65 202.782 248.999 193.318 248.999C183.854 248.999 176.182 256.65 176.182 266.089C176.182 275.527 183.854 283.178 193.318 283.178Z" fill="white"/>
<path d="M180.227 138.076C181.708 138.076 182.909 136.534 182.909 134.631C182.909 132.728 181.708 131.186 180.227 131.186C178.746 131.186 177.545 132.728 177.545 134.631C177.545 136.534 178.746 138.076 180.227 138.076Z" fill="#2A2769"/>
<path d="M176.772 130.234C178.727 129.237 181.227 128.602 183.091 130.188C184.182 131.14 185.818 129.554 184.682 128.602C182 126.29 178.591 126.789 175.591 128.285C174.318 128.919 175.454 130.868 176.772 130.234Z" fill="#2A2769"/>
<path d="M206.454 138.076C207.935 138.076 209.136 136.534 209.136 134.631C209.136 132.728 207.935 131.186 206.454 131.186C204.973 131.186 203.772 132.728 203.772 134.631C203.772 136.534 204.973 138.076 206.454 138.076Z" fill="#2A2769"/>
<path d="M209.908 130.234C207.954 129.237 205.454 128.602 203.59 130.188C202.499 131.14 200.863 129.554 201.999 128.602C204.681 126.29 208.09 126.789 211.09 128.285C212.363 128.919 211.226 130.868 209.908 130.234Z" fill="#2A2769"/>
<path d="M202.591 300.948C171.409 300.948 145.045 290.748 124.091 277.739V309.56C124.091 312.552 126.545 315 129.545 315H257.091C260.091 315 262.545 312.552 262.545 309.56V284.583C242.409 294.647 221.954 300.948 202.591 300.948Z" fill="#8FABD9"/>
<path d="M193.182 145.284C194.182 144.422 195.591 144.468 196.682 145.193C197.591 145.828 198.455 144.332 197.546 143.742C195.818 142.564 193.591 142.79 192 144.105C191.137 144.785 192.364 146.009 193.182 145.284Z" fill="#2A2769"/>
<path d="M180.817 152.899C186.226 157.024 193.09 156.979 199.59 156.797C200.681 156.752 200.681 155.075 199.59 155.075C193.363 155.301 186.863 155.392 181.681 151.448C180.817 150.768 179.999 152.219 180.817 152.899Z" fill="#2A2769"/>
<path d="M175.772 170.714C166.636 167.087 160.909 158.203 158.909 148.865C158.136 145.283 158.909 141.068 154.954 139.527C151.136 138.031 149.09 128.602 153.363 126.517C154.363 126.018 153.499 124.568 152.499 125.066C148.454 127.015 149.136 132.863 150.272 136.399C150.909 138.393 151.954 140.161 153.954 141.022C155.09 141.521 155.681 141.34 156.227 142.79C156.499 143.425 156.499 144.241 156.59 144.921C156.727 146.19 156.909 147.459 157.136 148.729C159.09 158.928 165.409 168.493 175.318 172.391C176.318 172.754 176.772 171.076 175.772 170.714Z" fill="#2A2769"/>
<path d="M153.817 132.546C153.908 132.047 155.363 133.135 155.545 133.226C156.136 133.634 156.772 134.042 157.363 134.45C158.272 135.039 159.136 133.588 158.227 132.999C157.136 132.274 155.863 131.095 154.545 130.778C153.499 130.506 152.408 131.05 152.181 132.138C151.999 133.18 153.636 133.634 153.817 132.546Z" fill="#2A2769"/>
<path d="M173.273 171.303C173.409 177.649 173.227 183.996 172.636 190.342C172.545 191.43 174.227 191.43 174.364 190.342C174.909 183.996 175.136 177.649 175 171.303C174.909 170.215 173.227 170.215 173.273 171.303Z" fill="#2A2769"/>
<path d="M211.863 172.346C221.772 168.447 228.044 158.883 230.044 148.683C230.272 147.414 230.408 146.145 230.59 144.876C230.681 144.196 230.681 143.425 230.954 142.745C231.454 141.566 232.226 141.43 233.226 140.977C235.135 140.116 236.181 138.575 236.817 136.671C238.044 133.09 238.817 127.061 234.681 125.021C233.681 124.522 232.817 126.018 233.817 126.471C238.09 128.557 236.044 137.985 232.226 139.481C228.272 141.022 228.999 145.238 228.272 148.819C226.272 158.112 220.544 167.042 211.408 170.668C210.408 171.076 210.817 172.754 211.863 172.346Z" fill="#2A2769"/>
<path d="M234.954 132.092C234.727 131.004 233.59 130.461 232.59 130.733C231.272 131.095 230.045 132.228 228.909 132.954C228 133.543 228.863 135.039 229.772 134.404C230.363 133.996 231 133.588 231.59 133.18C231.727 133.09 233.181 131.956 233.318 132.5C233.545 133.634 235.181 133.18 234.954 132.092Z" fill="#2A2769"/>
<path d="M212.227 171.303C212.09 177.649 212.272 183.996 212.863 190.342C212.954 191.43 214.681 191.43 214.59 190.342C214.045 183.996 213.817 177.649 213.954 171.303C213.954 170.215 212.227 170.215 212.227 171.303Z" fill="#2A2769"/>
<path d="M20.4655 2.82534C20.4655 2.12924 20.4655 1.47409 20.4655 0.777997C20.4655 -0.204726 18.9053 -0.204726 18.9053 0.777997C18.9053 18.8355 18.9053 36.8521 18.9053 54.9097C18.9053 55.8924 20.4655 55.8924 20.4655 54.9097C20.4655 36.8521 20.4655 18.8355 20.4655 0.777997C20.4655 -0.204726 18.9053 -0.204726 18.9053 0.777997C18.9053 1.47409 18.9053 2.12924 18.9053 2.82534C18.9463 3.80806 20.4655 3.80806 20.4655 2.82534Z" fill="#BA5A8D"/>
<path d="M19.7259 55.6058C42.3084 55.6058 64.8909 55.6058 87.4734 55.6058C88.4588 55.6058 88.4588 54.0498 87.4734 54.0498C64.8909 54.0498 42.3084 54.0498 19.7259 54.0498C18.6994 54.0498 18.6994 55.6058 19.7259 55.6058Z" fill="#BA5A8D"/>
<path d="M86.6943 0.777997C86.6943 18.7946 86.6943 36.8112 86.6943 54.8278C86.6943 55.8105 88.2546 55.8105 88.2546 54.8278C88.2546 36.8112 88.2546 18.7946 88.2546 0.777997C88.2135 -0.204726 86.6943 -0.204726 86.6943 0.777997Z" fill="#BA5A8D"/>
<path d="M19.7269 1.55598C42.3094 1.55598 64.8919 1.55598 87.4744 1.55598C88.4598 1.55598 88.4598 0 87.4744 0C64.8919 0 42.3094 0 19.7269 0C18.7004 0 18.7004 1.55598 19.7269 1.55598Z" fill="#BA5A8D"/>
<path d="M19.4394 1.51504C41.1596 19.9411 63.4136 37.6301 86.2425 54.664C87.0226 55.2373 87.8027 53.927 87.0226 53.3537C64.3169 36.4017 42.145 18.7536 20.5479 0.450418C19.7678 -0.204731 18.7003 0.859886 19.4394 1.51504Z" fill="#BA5A8D"/>
<path d="M86.0781 0.450418C64.481 18.7536 42.3091 36.4017 19.6034 53.3537C18.8233 53.927 19.6034 55.2782 20.3835 54.664C43.2124 37.6301 65.4664 19.9411 87.1867 1.51503C87.9257 0.859886 86.8171 -0.204731 86.0781 0.450418Z" fill="#BA5A8D"/>
<path d="M291.772 165.863C291.772 192.654 291.772 219.444 291.772 246.234C291.772 247.322 293.5 247.322 293.5 246.234C293.5 219.444 293.5 192.654 293.5 165.863C293.454 164.776 291.772 164.776 291.772 165.863Z" fill="#2A2769"/>
<path d="M309.591 152.491C332 152.491 354.454 152.491 376.863 152.491C377.954 152.491 377.954 150.768 376.863 150.768C354.454 150.768 332 150.768 309.591 150.768C308.454 150.814 308.454 152.491 309.591 152.491Z" fill="#2A2769"/>
<path d="M309.591 264.91C332.727 264.91 355.863 264.91 379 264.91C380.091 264.91 380.091 263.188 379 263.188C355.863 263.188 332.727 263.188 309.591 263.188C308.454 263.233 308.454 264.91 309.591 264.91Z" fill="#2A2769"/>
<path d="M396.317 162.237C396.317 191.747 396.317 221.257 396.317 250.767C396.317 251.855 398.045 251.855 398.045 250.767C398.045 221.257 398.045 191.747 398.045 162.237C397.999 161.149 396.317 161.149 396.317 162.237Z" fill="#2A2769"/>
<path d="M48.6814 215.409C70.4086 215.409 92.1814 215.409 113.909 215.409C115 215.409 115 213.687 113.909 213.687C92.1814 213.687 70.4086 213.687 48.6814 213.687C47.545 213.732 47.545 215.409 48.6814 215.409Z" fill="#2A2769"/>
</g>
<defs>
<clipPath id="clip0">
<rect width="398" height="315" fill="white"/>
</clipPath>
</defs>
</svg>
